<?xml version="1.0" encoding="utf-8"?>
<!-- Generator: Adobe Illustrator 24.1.2, SVG Export Plug-In . SVG Version: 6.00 Build 0)  -->
<svg version="1.1" id="Logo" xmlns="http://www.w3.org/2000/svg" xmlns:xlink="http://www.w3.org/1999/xlink" x="0px" y="0px"
	 viewBox="0 0 138 28" style="enable-background:new 0 0 138 28;" xml:space="preserve">
<style type="text/css">
	.st0{enable-background:new    ;}
	.st1{fill:#FEFEFE;}
	.st2{fill:#65E496;}
	.st3{fill-rule:evenodd;clip-rule:evenodd;fill:#65E496;}
	.st4{fill-rule:evenodd;clip-rule:evenodd;fill:#44444F;}
</style>
<g class="st0">
	<path class="st1" d="M41.5,23v-1.7l2.2-0.4V5.2l-2.2-0.4V3.1h2.2h6.4c2.1,0,3.7,0.4,4.9,1.3c1.2,0.9,1.8,2.2,1.8,4
		c0,0.9-0.3,1.7-0.8,2.4s-1.3,1.2-2.2,1.6c0.8,0.2,1.5,0.5,2.1,1s1,1.1,1.3,1.8c0.3,0.7,0.5,1.4,0.5,2.3c0,1.8-0.6,3.2-1.8,4.2
		C54.6,22.5,53,23,51,23H41.5z M46.5,11.6h4.4c1,0,1.7-0.3,2.3-0.8c0.6-0.6,0.9-1.3,0.9-2.3c0-1.1-0.3-1.9-1-2.4
		c-0.7-0.5-1.6-0.8-2.9-0.8h-3.7V11.6z M46.5,20.9H51c1.2,0,2.2-0.3,2.9-0.9c0.7-0.6,1-1.5,1-2.6c0-0.8-0.1-1.5-0.4-2
		c-0.3-0.6-0.6-1-1.1-1.3c-0.5-0.3-1.2-0.5-1.9-0.5h-4.9V20.9z"/>
	<path class="st1" d="M68.8,23.3c-1.4,0-2.6-0.3-3.7-0.8c-1.1-0.5-1.9-1.3-2.5-2.3c-0.6-1-0.9-2.2-0.9-3.6V5.2l-2.2-0.4V3.1h7.2v1.7
		l-2.2,0.4v11.4c0,1,0.2,1.8,0.6,2.5c0.4,0.7,0.9,1.2,1.6,1.5c0.7,0.3,1.5,0.5,2.3,0.5c0.9,0,1.7-0.2,2.4-0.5
		c0.7-0.3,1.2-0.8,1.6-1.5c0.4-0.7,0.6-1.5,0.6-2.5V5.2l-2.2-0.4V3.1h7.2v1.7l-2.2,0.4v11.4c0,1.4-0.3,2.7-0.9,3.7
		c-0.6,1-1.5,1.8-2.5,2.3S70.3,23.3,68.8,23.3z"/>
	<path class="st1" d="M80.4,23v-1.7l2.2-0.4V5.2l-2.2-0.4V3.1h7.2v1.7l-2.2,0.4v15.7l2.2,0.4V23H80.4z M85.2,17.2l-1.4-1.7l9.4-10.5
		L93.2,5l-1.5-0.2V3.1h6.4v1.7l-1.9,0.3L85.2,17.2z M92.2,23v-1.7l1.6-0.2l0,0l-5.5-7.6l1.5-2.1l7.2,9.6l1.8,0.3V23H92.2z"/>
</g>
<g class="st0">
	<path class="st2" d="M101,23v-1.7l2.2-0.4V5.2L101,4.8V3.1h14.7v4.8h-2.2l-0.3-2.7h-7.4v6.5h7.3v2.1h-7.3V21h7.8l0.3-2.7h2.1V23
		H101z"/>
	<path class="st2" d="M118.8,23v-1.7l2.2-0.4V5.2l-2.2-0.4V3.1h14.7v4.8h-2.2l-0.3-2.7h-7.4v6.5h7.3v2.1h-7.3V21h7.8l0.3-2.7h2.1V23
		H118.8z"/>
</g>
<g id="logo_icon">
	<path id="Rectangle_10_copy_3" class="st3" d="M28,28L0,0h28V28z"/>
	<path class="st4" d="M28,0L0,28V0H28z"/>
</g>
</svg>
