<?xml version="1.0" encoding="utf-8"?>
<!-- Generator: Adobe Illustrator 24.1.2, SVG Export Plug-In . SVG Version: 6.00 Build 0)  -->
<svg version="1.1" id="Logo" xmlns="http://www.w3.org/2000/svg" xmlns:xlink="http://www.w3.org/1999/xlink" x="0px" y="0px"
	 viewBox="0 0 137 28" style="enable-background:new 0 0 137 28;" xml:space="preserve">
<style type="text/css">
	.st0{enable-background:new    ;}
	.st1{fill:#FEFEFE;}
	.st2{fill:#65E496;}
	.st3{fill-rule:evenodd;clip-rule:evenodd;fill:#65E496;}
	.st4{fill-rule:evenodd;clip-rule:evenodd;fill:#44444F;}
</style>
<g class="st0">
	<path class="st1" d="M46.8,23V3.1h6.5c2.3,0,4.2,0.5,5.5,1.4s2,2.3,2,4.1c0,0.9-0.2,1.7-0.7,2.4c-0.5,0.7-1.2,1.3-2.1,1.6
		c1.2,0.2,2.2,0.8,2.8,1.6c0.6,0.8,0.9,1.8,0.9,3c0,1.9-0.6,3.3-1.9,4.3s-3,1.5-5.3,1.5H46.8z M50.8,11.4h2.7c1.1,0,1.9-0.2,2.5-0.7
		s0.9-1.1,0.9-1.9c0-0.9-0.3-1.6-0.9-2c-0.6-0.4-1.4-0.7-2.6-0.7h-2.5V11.4z M50.8,14.2v5.7h3.7c1.1,0,1.9-0.2,2.4-0.7
		c0.6-0.5,0.8-1.1,0.8-2c0-1-0.3-1.7-0.8-2.2c-0.5-0.5-1.4-0.8-2.5-0.8H50.8z"/>
	<path class="st1" d="M80.4,3.1v13c0,2.2-0.7,4-2.2,5.3s-3.4,1.9-5.8,1.9c-2.4,0-4.3-0.6-5.7-1.9c-1.5-1.3-2.2-3-2.2-5.3v-13h4v13
		c0,1.3,0.4,2.3,1.1,3s1.7,1.1,2.9,1.1c1.2,0,2.2-0.4,2.9-1.1s1.1-1.7,1.1-3v-13H80.4z"/>
	<path class="st1" d="M89.3,14.7h-1.5V23h-4V3.1h4v8.1H89l5.5-8.1h4.9l-6.9,9.3L99.9,23h-5.1L89.3,14.7z"/>
</g>
<g class="st0">
	<path class="st2" d="M113.1,14.2h-7.4v5.7h8.8V23h-12.8V3.1h12.7v3.1h-8.8v5h7.4V14.2z"/>
	<path class="st2" d="M128.7,14.2h-7.4v5.7h8.8V23h-12.8V3.1H130v3.1h-8.8v5h7.4V14.2z"/>
</g>
<g id="logo_icon">
	<path id="Rectangle_10_copy_3" class="st3" d="M28,28L0,0h28V28z"/>
	<path class="st4" d="M28,0L0,28V0H28z"/>
</g>
</svg>
